<?xml version="1.0" encoding="UTF-8" standalone="no"?>
<!DOCTYPE svg PUBLIC "-//W3C//DTD SVG 1.1//EN"
 "http://www.w3.org/Graphics/SVG/1.1/DTD/svg11.dtd">
<!-- Generated by graphviz version 2.43.0 (0)
 -->
<!-- Title: G Pages: 1 -->
<svg width="492pt" height="276pt"
 viewBox="0.00 0.00 492.25 276.10" xmlns="http://www.w3.org/2000/svg" xmlns:xlink="http://www.w3.org/1999/xlink">
<g id="graph0" class="graph" transform="scale(1 1) rotate(0) translate(4 272.1)">
<title>G</title>
<polygon fill="#3d3d3d" stroke="transparent" points="-4,4 -4,-272.1 488.25,-272.1 488.25,4 -4,4"/>
<!-- 7469774414343895686 -->
<g id="node1" class="node">
<title>7469774414343895686</title>
<path fill="lightgray" stroke="black" d="M472.25,-268.1C472.25,-268.1 388.25,-268.1 388.25,-268.1 382.25,-268.1 376.25,-262.1 376.25,-256.1 376.25,-256.1 376.25,-244.1 376.25,-244.1 376.25,-238.1 382.25,-232.1 388.25,-232.1 388.25,-232.1 472.25,-232.1 472.25,-232.1 478.25,-232.1 484.25,-238.1 484.25,-244.1 484.25,-244.1 484.25,-256.1 484.25,-256.1 484.25,-262.1 478.25,-268.1 472.25,-268.1"/>
<text text-anchor="middle" x="430.25" y="-246.4" font-family="Times,serif" font-size="14.00">Timer</text>
</g>
<!-- 3258540324722167673 -->
<g id="node5" class="node">
<title>3258540324722167673</title>
<ellipse fill="#3d3d3d" stroke="lightgray" cx="360.6" cy="-230.67" rx="1.8" ry="1.8"/>
</g>
<!-- 7469774414343895686&#45;&gt;3258540324722167673 -->
<g id="edge1" class="edge">
<title>7469774414343895686&#45;&gt;3258540324722167673</title>
<path fill="none" stroke="#1b9e77" d="M376.06,-234.98C369.88,-233.26 364.89,-231.86 362.38,-231.16"/>
</g>
<!-- 11770932799993634071 -->
<g id="node2" class="node">
<title>11770932799993634071</title>
<path fill="lightgray" stroke="black" d="M137,-36C137,-36 12,-36 12,-36 6,-36 0,-30 0,-24 0,-24 0,-12 0,-12 0,-6 6,0 12,0 12,0 137,0 137,0 143,0 149,-6 149,-12 149,-12 149,-24 149,-24 149,-30 143,-36 137,-36"/>
<text text-anchor="middle" x="74.5" y="-14.3" font-family="Times,serif" font-size="14.00">Print&lt;Vec&lt;f64&gt;&gt;</text>
</g>
<!-- 6077166269983988933 -->
<g id="node3" class="node">
<title>6077166269983988933</title>
<path fill="lightgray" stroke="black" d="M337.89,-220.66C337.89,-220.66 249.89,-220.66 249.89,-220.66 243.89,-220.66 237.89,-214.66 237.89,-208.66 237.89,-208.66 237.89,-196.66 237.89,-196.66 237.89,-190.66 243.89,-184.66 249.89,-184.66 249.89,-184.66 337.89,-184.66 337.89,-184.66 343.89,-184.66 349.89,-190.66 349.89,-196.66 349.89,-196.66 349.89,-208.66 349.89,-208.66 349.89,-214.66 343.89,-220.66 337.89,-220.66"/>
<text text-anchor="middle" x="293.89" y="-198.96" font-family="Times,serif" font-size="14.00">OpticalModel</text>
</g>
<!-- 15949852094478809501 -->
<g id="node6" class="node">
<title>15949852094478809501</title>
<ellipse fill="#3d3d3d" stroke="lightgray" cx="230.96" cy="-166.83" rx="1.8" ry="1.8"/>
</g>
<!-- 6077166269983988933&#45;&gt;15949852094478809501 -->
<g id="edge2" class="edge">
<title>6077166269983988933&#45;&gt;15949852094478809501</title>
<path fill="none" stroke="#1b9e77" d="M262.05,-184.53C249.62,-177.45 237.26,-170.42 232.75,-167.85"/>
</g>
<!-- 3658593185585868924 -->
<g id="node4" class="node">
<title>3658593185585868924</title>
<path fill="lightgray" stroke="black" d="M224.79,-141.77C224.79,-141.77 120.79,-141.77 120.79,-141.77 114.79,-141.77 108.79,-135.77 108.79,-129.77 108.79,-129.77 108.79,-117.77 108.79,-117.77 108.79,-111.77 114.79,-105.77 120.79,-105.77 120.79,-105.77 224.79,-105.77 224.79,-105.77 230.79,-105.77 236.79,-111.77 236.79,-117.77 236.79,-117.77 236.79,-129.77 236.79,-129.77 236.79,-135.77 230.79,-141.77 224.79,-141.77"/>
<text text-anchor="middle" x="172.79" y="-120.07" font-family="Times,serif" font-size="14.00">WavefrontStats</text>
</g>
<!-- 10652098154416770139 -->
<g id="node7" class="node">
<title>10652098154416770139</title>
<ellipse fill="#3d3d3d" stroke="lightgray" cx="120.28" cy="-73.95" rx="1.8" ry="1.8"/>
</g>
<!-- 3658593185585868924&#45;&gt;10652098154416770139 -->
<g id="edge3" class="edge">
<title>3658593185585868924&#45;&gt;10652098154416770139</title>
<path fill="none" stroke="#1b9e77" d="M153.54,-105.5C141.13,-93.73 126.47,-79.82 121.79,-75.38"/>
</g>
<!-- 3258540324722167673&#45;&gt;6077166269983988933 -->
<g id="edge5" class="edge">
<title>3258540324722167673&#45;&gt;6077166269983988933</title>
<path fill="none" stroke="#1b9e77" d="M358.68,-229.86C356.26,-228.85 351.77,-226.96 346.22,-224.63"/>
<polygon fill="#1b9e77" stroke="#1b9e77" points="336.79,-220.67 347.75,-220.39 341.4,-222.61 346.01,-224.54 346.01,-224.54 346.01,-224.54 341.4,-222.61 344.27,-228.69 336.79,-220.67 336.79,-220.67"/>
<text text-anchor="middle" x="337.75" y="-228.07" font-family="Times,serif" font-size="9.00" fill="lightgray">Tick</text>
</g>
<!-- 15949852094478809501&#45;&gt;3658593185585868924 -->
<g id="edge6" class="edge">
<title>15949852094478809501&#45;&gt;3658593185585868924</title>
<path fill="none" stroke="#1b9e77" d="M229.02,-165.4C225.04,-162.45 215.45,-155.35 205.29,-147.83"/>
<polygon fill="#1b9e77" stroke="#1b9e77" points="197.12,-141.78 207.84,-144.12 201.14,-144.76 205.16,-147.73 205.16,-147.73 205.16,-147.73 201.14,-144.76 202.48,-151.35 197.12,-141.78 197.12,-141.78"/>
<text text-anchor="middle" x="189.17" y="-156.46" font-family="Times,serif" font-size="9.00" fill="lightgray">GuideStar</text>
</g>
<!-- 10652098154416770139&#45;&gt;11770932799993634071 -->
<g id="edge4" class="edge">
<title>10652098154416770139&#45;&gt;11770932799993634071</title>
<path fill="none" stroke="#1b9e77" d="M118.76,-72.09C115.05,-67.56 105.17,-55.48 95.68,-43.89"/>
<polygon fill="#1b9e77" stroke="#1b9e77" points="89.26,-36.04 99.07,-40.93 92.42,-39.91 95.59,-43.78 95.59,-43.78 95.59,-43.78 92.42,-39.91 92.11,-46.62 89.26,-36.04 89.26,-36.04"/>
<text text-anchor="middle" x="73.57" y="-56.93" font-family="Times,serif" font-size="9.00" fill="lightgray">WfeRms&lt;&#45;9&gt;</text>
</g>
</g>
</svg>
