<?xml version="1.0" encoding="UTF-8" standalone="no"?>
<!DOCTYPE svg PUBLIC "-//W3C//DTD SVG 1.1//EN"
 "http://www.w3.org/Graphics/SVG/1.1/DTD/svg11.dtd">
<!-- Generated by graphviz version 2.43.0 (0)
 -->
<!-- Title: G Pages: 1 -->
<svg width="491pt" height="653pt"
 viewBox="0.00 0.00 490.50 652.60" xmlns="http://www.w3.org/2000/svg" xmlns:xlink="http://www.w3.org/1999/xlink">
<g id="graph0" class="graph" transform="scale(1 1) rotate(0) translate(4 648.6)">
<title>G</title>
<polygon fill="#3d3d3d" stroke="transparent" points="-4,4 -4,-648.6 486.5,-648.6 486.5,4 -4,4"/>
<!-- 7469774414343895686 -->
<g id="node1" class="node">
<title>7469774414343895686</title>
<path fill="lightgray" stroke="black" d="M426.5,-644.6C426.5,-644.6 342.5,-644.6 342.5,-644.6 336.5,-644.6 330.5,-638.6 330.5,-632.6 330.5,-632.6 330.5,-620.6 330.5,-620.6 330.5,-614.6 336.5,-608.6 342.5,-608.6 342.5,-608.6 426.5,-608.6 426.5,-608.6 432.5,-608.6 438.5,-614.6 438.5,-620.6 438.5,-620.6 438.5,-632.6 438.5,-632.6 438.5,-638.6 432.5,-644.6 426.5,-644.6"/>
<text text-anchor="middle" x="384.5" y="-622.9" font-family="Times,serif" font-size="14.00">Timer</text>
</g>
<!-- 3258540324722167673 -->
<g id="node8" class="node">
<title>3258540324722167673</title>
<ellipse fill="#3d3d3d" stroke="lightgray" cx="384.5" cy="-569.8" rx="1.8" ry="1.8"/>
</g>
<!-- 7469774414343895686&#45;&gt;3258540324722167673 -->
<g id="edge1" class="edge">
<title>7469774414343895686&#45;&gt;3258540324722167673</title>
<path fill="none" stroke="#1b9e77" d="M384.5,-608.56C384.5,-594.49 384.5,-576.13 384.5,-571.76"/>
</g>
<!-- 10499473107965159088 -->
<g id="node2" class="node">
<title>10499473107965159088</title>
<path fill="lightgray" stroke="black" d="M470.5,-531C470.5,-531 298.5,-531 298.5,-531 292.5,-531 286.5,-525 286.5,-519 286.5,-519 286.5,-507 286.5,-507 286.5,-501 292.5,-495 298.5,-495 298.5,-495 470.5,-495 470.5,-495 476.5,-495 482.5,-501 482.5,-507 482.5,-507 482.5,-519 482.5,-519 482.5,-525 476.5,-531 470.5,-531"/>
<text text-anchor="middle" x="384.5" y="-509.3" font-family="Times,serif" font-size="14.00">OpticalModel&lt;Pyramid&gt;</text>
</g>
<!-- 912500471665122232 -->
<g id="node9" class="node">
<title>912500471665122232</title>
<ellipse fill="#3d3d3d" stroke="lightgray" cx="339.5" cy="-456.2" rx="1.8" ry="1.8"/>
</g>
<!-- 10499473107965159088&#45;&gt;912500471665122232 -->
<g id="edge2" class="edge">
<title>10499473107965159088&#45;&gt;912500471665122232</title>
<path fill="none" stroke="#1b9e77" d="M370.51,-494.96C358.95,-480.89 343.88,-462.53 340.29,-458.16"/>
</g>
<!-- 17247605850665520845 -->
<g id="node3" class="node">
<title>17247605850665520845</title>
<path fill="lightgray" stroke="black" d="M233,-190.2C233,-190.2 12,-190.2 12,-190.2 6,-190.2 0,-184.2 0,-178.2 0,-178.2 0,-166.2 0,-166.2 0,-160.2 6,-154.2 12,-154.2 12,-154.2 233,-154.2 233,-154.2 239,-154.2 245,-160.2 245,-166.2 245,-166.2 245,-178.2 245,-178.2 245,-184.2 239,-190.2 233,-190.2"/>
<text text-anchor="middle" x="122.5" y="-168.5" font-family="Times,serif" font-size="14.00">Integrator&lt;ResidualM2modes&gt;</text>
</g>
<!-- 1983107429289079761 -->
<g id="node10" class="node">
<title>1983107429289079761</title>
<ellipse fill="#3d3d3d" stroke="lightgray" cx="250.5" cy="-115.4" rx="1.8" ry="1.8"/>
</g>
<!-- 17247605850665520845&#45;&gt;1983107429289079761 -->
<g id="edge3" class="edge">
<title>17247605850665520845&#45;&gt;1983107429289079761</title>
<path fill="none" stroke="#1b9e77" stroke-width="2" d="M162.3,-154.16C196.35,-139.58 241.12,-120.41 249.22,-116.95"/>
</g>
<!-- 15521946875032371763 -->
<g id="node4" class="node">
<title>15521946875032371763</title>
<path fill="lightgray" stroke="black" d="M359,-303.8C359,-303.8 130,-303.8 130,-303.8 124,-303.8 118,-297.8 118,-291.8 118,-291.8 118,-279.8 118,-279.8 118,-273.8 124,-267.8 130,-267.8 130,-267.8 359,-267.8 359,-267.8 365,-267.8 371,-273.8 371,-279.8 371,-279.8 371,-291.8 371,-291.8 371,-297.8 365,-303.8 359,-303.8"/>
<text text-anchor="middle" x="244.5" y="-282.1" font-family="Times,serif" font-size="14.00">Calibration&lt;PyramidCalibrator&gt;</text>
</g>
<!-- 9051896820175273201 -->
<g id="node11" class="node">
<title>9051896820175273201</title>
<ellipse fill="#3d3d3d" stroke="lightgray" cx="244.5" cy="-229" rx="1.8" ry="1.8"/>
</g>
<!-- 15521946875032371763&#45;&gt;9051896820175273201 -->
<g id="edge4" class="edge">
<title>15521946875032371763&#45;&gt;9051896820175273201</title>
<path fill="none" stroke="#1b9e77" d="M244.5,-267.76C244.5,-253.69 244.5,-235.33 244.5,-230.96"/>
</g>
<!-- 2062407248823108828 -->
<g id="node5" class="node">
<title>2062407248823108828</title>
<path fill="lightgray" stroke="black" d="M359.5,-76.6C359.5,-76.6 275.5,-76.6 275.5,-76.6 269.5,-76.6 263.5,-70.6 263.5,-64.6 263.5,-64.6 263.5,-52.6 263.5,-52.6 263.5,-46.6 269.5,-40.6 275.5,-40.6 275.5,-40.6 359.5,-40.6 359.5,-40.6 365.5,-40.6 371.5,-46.6 371.5,-52.6 371.5,-52.6 371.5,-64.6 371.5,-64.6 371.5,-70.6 365.5,-76.6 359.5,-76.6"/>
<text text-anchor="middle" x="317.5" y="-54.9" font-family="Times,serif" font-size="14.00">OpticalGain</text>
</g>
<!-- 3772728463439790113 -->
<g id="node12" class="node">
<title>3772728463439790113</title>
<ellipse fill="#3d3d3d" stroke="lightgray" cx="358.5" cy="-1.8" rx="1.8" ry="1.8"/>
</g>
<!-- 2062407248823108828&#45;&gt;3772728463439790113 -->
<g id="edge5" class="edge">
<title>2062407248823108828&#45;&gt;3772728463439790113</title>
<path fill="none" stroke="#1b9e77" d="M330.25,-40.56C340.78,-26.49 354.51,-8.13 357.78,-3.76"/>
</g>
<!-- 3356374989628767156 -->
<g id="node6" class="node">
<title>3356374989628767156</title>
<path fill="lightgray" stroke="black" d="M359.5,-190.2C359.5,-190.2 275.5,-190.2 275.5,-190.2 269.5,-190.2 263.5,-184.2 263.5,-178.2 263.5,-178.2 263.5,-166.2 263.5,-166.2 263.5,-160.2 269.5,-154.2 275.5,-154.2 275.5,-154.2 359.5,-154.2 359.5,-154.2 365.5,-154.2 371.5,-160.2 371.5,-166.2 371.5,-166.2 371.5,-178.2 371.5,-178.2 371.5,-184.2 365.5,-190.2 359.5,-190.2"/>
<text text-anchor="middle" x="317.5" y="-168.5" font-family="Times,serif" font-size="14.00">Delay</text>
</g>
<!-- 2921664031020305665 -->
<g id="node13" class="node">
<title>2921664031020305665</title>
<ellipse fill="#3d3d3d" stroke="lightgray" cx="317.5" cy="-115.4" rx="1.8" ry="1.8"/>
</g>
<!-- 3356374989628767156&#45;&gt;2921664031020305665 -->
<g id="edge6" class="edge">
<title>3356374989628767156&#45;&gt;2921664031020305665</title>
<path fill="none" stroke="#1b9e77" stroke-width="2" d="M317.5,-154.16C317.5,-140.09 317.5,-121.73 317.5,-117.36"/>
</g>
<!-- 14814283982138909801 -->
<g id="node7" class="node">
<title>14814283982138909801</title>
<path fill="lightgray" stroke="black" d="M359.5,-417.4C359.5,-417.4 141.5,-417.4 141.5,-417.4 135.5,-417.4 129.5,-411.4 129.5,-405.4 129.5,-405.4 129.5,-393.4 129.5,-393.4 129.5,-387.4 135.5,-381.4 141.5,-381.4 141.5,-381.4 359.5,-381.4 359.5,-381.4 365.5,-381.4 371.5,-387.4 371.5,-393.4 371.5,-393.4 371.5,-405.4 371.5,-405.4 371.5,-411.4 365.5,-417.4 359.5,-417.4"/>
<text text-anchor="middle" x="250.5" y="-395.7" font-family="Times,serif" font-size="14.00">Processor&lt;PyramidProcessor&gt;</text>
</g>
<!-- 5033500377993613365 -->
<g id="node14" class="node">
<title>5033500377993613365</title>
<ellipse fill="#3d3d3d" stroke="lightgray" cx="248.5" cy="-342.6" rx="1.8" ry="1.8"/>
</g>
<!-- 14814283982138909801&#45;&gt;5033500377993613365 -->
<g id="edge7" class="edge">
<title>14814283982138909801&#45;&gt;5033500377993613365</title>
<path fill="none" stroke="#1b9e77" d="M249.88,-381.36C249.36,-367.29 248.69,-348.93 248.54,-344.56"/>
</g>
<!-- 3258540324722167673&#45;&gt;10499473107965159088 -->
<g id="edge8" class="edge">
<title>3258540324722167673&#45;&gt;10499473107965159088</title>
<path fill="none" stroke="#1b9e77" d="M384.5,-567.85C384.5,-564.49 384.5,-552.73 384.5,-541.05"/>
<polygon fill="#1b9e77" stroke="#1b9e77" points="384.5,-531.02 389,-541.02 384.5,-536.02 384.5,-541.02 384.5,-541.02 384.5,-541.02 384.5,-536.02 380,-541.02 384.5,-531.02 384.5,-531.02"/>
<text text-anchor="middle" x="394.5" y="-547.3" font-family="Times,serif" font-size="9.00" fill="lightgray">Tick</text>
</g>
<!-- 912500471665122232&#45;&gt;14814283982138909801 -->
<g id="edge15" class="edge">
<title>912500471665122232&#45;&gt;14814283982138909801</title>
<path fill="none" stroke="#1b9e77" d="M338.5,-454.58C333.33,-451.4 309.03,-436.44 287.27,-423.04"/>
<polygon fill="#1b9e77" stroke="#1b9e77" points="278.48,-417.63 289.35,-419.04 282.73,-420.25 286.99,-422.87 286.99,-422.87 286.99,-422.87 282.73,-420.25 284.63,-426.7 278.48,-417.63 278.48,-417.63"/>
<text text-anchor="middle" x="342.5" y="-433.7" font-family="Times,serif" font-size="9.00" fill="lightgray">DetectorFrame</text>
</g>
<!-- 1983107429289079761&#45;&gt;2062407248823108828 -->
<g id="edge12" class="edge">
<title>1983107429289079761&#45;&gt;2062407248823108828</title>
<path fill="none" stroke="#1b9e77" d="M251.66,-113.45C256.19,-109.75 273.16,-95.86 288.74,-83.12"/>
<polygon fill="#1b9e77" stroke="#1b9e77" points="296.69,-76.62 291.79,-86.44 292.81,-79.79 288.94,-82.96 288.94,-82.96 288.94,-82.96 292.81,-79.79 286.1,-79.47 296.69,-76.62 296.69,-76.62"/>
<text text-anchor="middle" x="297" y="-92.9" font-family="Times,serif" font-size="9.00" fill="lightgray">M2modes</text>
</g>
<!-- 9051896820175273201&#45;&gt;17247605850665520845 -->
<g id="edge10" class="edge">
<title>9051896820175273201&#45;&gt;17247605850665520845</title>
<path fill="none" stroke="#1b9e77" d="M243.13,-227.38C235.8,-224.09 200.4,-208.19 169.83,-194.46"/>
<polygon fill="#1b9e77" stroke="#1b9e77" points="160.54,-190.29 171.5,-190.28 165.1,-192.33 169.66,-194.38 169.66,-194.38 169.66,-194.38 165.1,-192.33 167.82,-198.49 160.54,-190.29 160.54,-190.29"/>
<text text-anchor="middle" x="245" y="-206.5" font-family="Times,serif" font-size="9.00" fill="lightgray">ResidualM2modes</text>
</g>
<!-- 9051896820175273201&#45;&gt;3356374989628767156 -->
<g id="edge14" class="edge">
<title>9051896820175273201&#45;&gt;3356374989628767156</title>
<path fill="none" stroke="#1b9e77" d="M245.32,-227.38C249.47,-224.27 268.62,-209.9 286.15,-196.74"/>
<polygon fill="#1b9e77" stroke="#1b9e77" points="294.55,-190.43 289.26,-200.03 290.55,-193.43 286.56,-196.43 286.56,-196.43 286.56,-196.43 290.55,-193.43 283.85,-192.83 294.55,-190.43 294.55,-190.43"/>
<text text-anchor="middle" x="313" y="-206.5" font-family="Times,serif" font-size="9.00" fill="lightgray">ResidualM2modes</text>
</g>
<!-- 3772728463439790113&#45;&gt;10499473107965159088 -->
<g id="edge9" class="edge">
<title>3772728463439790113&#45;&gt;10499473107965159088</title>
<path fill="none" stroke="#1b9e77" d="M359.51,-3.43C365.83,-7.42 399.5,-30.03 399.5,-57.6 399.5,-457.2 399.5,-457.2 399.5,-457.2 399.5,-466.42 397.5,-476.21 394.96,-484.92"/>
<polygon fill="#1b9e77" stroke="#1b9e77" points="391.82,-494.56 390.64,-483.66 393.37,-489.81 394.92,-485.05 394.92,-485.05 394.92,-485.05 393.37,-489.81 399.2,-486.45 391.82,-494.56 391.82,-494.56"/>
<text text-anchor="middle" x="422" y="-247.1" font-family="Times,serif" font-size="9.00" fill="lightgray">M2modes</text>
</g>
<!-- 2921664031020305665&#45;&gt;2062407248823108828 -->
<g id="edge13" class="edge">
<title>2921664031020305665&#45;&gt;2062407248823108828</title>
<path fill="none" stroke="#1b9e77" d="M317.5,-113.45C317.5,-110.09 317.5,-98.33 317.5,-86.65"/>
<polygon fill="#1b9e77" stroke="#1b9e77" points="317.5,-76.62 322,-86.62 317.5,-81.62 317.5,-86.62 317.5,-86.62 317.5,-86.62 317.5,-81.62 313,-86.62 317.5,-76.62 317.5,-76.62"/>
<text text-anchor="middle" x="360" y="-92.9" font-family="Times,serif" font-size="9.00" fill="lightgray">ResidualM2modes</text>
</g>
<!-- 5033500377993613365&#45;&gt;15521946875032371763 -->
<g id="edge11" class="edge">
<title>5033500377993613365&#45;&gt;15521946875032371763</title>
<path fill="none" stroke="#1b9e77" d="M248.43,-340.65C248.19,-337.29 247.33,-325.53 246.47,-313.85"/>
<polygon fill="#1b9e77" stroke="#1b9e77" points="245.74,-303.82 250.96,-313.47 246.11,-308.81 246.47,-313.8 246.47,-313.8 246.47,-313.8 246.11,-308.81 241.98,-314.13 245.74,-303.82 245.74,-303.82"/>
<text text-anchor="middle" x="300.5" y="-320.1" font-family="Times,serif" font-size="9.00" fill="lightgray">PyramidMeasurements</text>
</g>
</g>
</svg>
