<?xml version="1.0" encoding="UTF-8" standalone="no"?>
<!DOCTYPE svg PUBLIC "-//W3C//DTD SVG 1.1//EN"
 "http://www.w3.org/Graphics/SVG/1.1/DTD/svg11.dtd">
<!-- Generated by graphviz version 2.43.0 (0)
 -->
<!-- Title: G Pages: 1 -->
<svg width="557pt" height="425pt"
 viewBox="0.00 0.00 556.50 425.40" xmlns="http://www.w3.org/2000/svg" xmlns:xlink="http://www.w3.org/1999/xlink">
<g id="graph0" class="graph" transform="scale(1 1) rotate(0) translate(4 421.4)">
<title>G</title>
<polygon fill="#3d3d3d" stroke="transparent" points="-4,4 -4,-421.4 552.5,-421.4 552.5,4 -4,4"/>
<!-- 5825991630372638752 -->
<g id="node1" class="node">
<title>5825991630372638752</title>
<path fill="lightgray" stroke="black" d="M536.5,-417.4C536.5,-417.4 307.5,-417.4 307.5,-417.4 301.5,-417.4 295.5,-411.4 295.5,-405.4 295.5,-405.4 295.5,-393.4 295.5,-393.4 295.5,-387.4 301.5,-381.4 307.5,-381.4 307.5,-381.4 536.5,-381.4 536.5,-381.4 542.5,-381.4 548.5,-387.4 548.5,-393.4 548.5,-393.4 548.5,-405.4 548.5,-405.4 548.5,-411.4 542.5,-417.4 536.5,-417.4"/>
<text text-anchor="middle" x="422" y="-395.7" font-family="Times,serif" font-size="14.00">Calibration&lt;PyramidCalibrator&gt;</text>
</g>
<!-- 9051896820175273201 -->
<g id="node7" class="node">
<title>9051896820175273201</title>
<ellipse fill="#3d3d3d" stroke="lightgray" cx="345" cy="-342.6" rx="1.8" ry="1.8"/>
</g>
<!-- 5825991630372638752&#45;&gt;9051896820175273201 -->
<g id="edge1" class="edge">
<title>5825991630372638752&#45;&gt;9051896820175273201</title>
<path fill="none" stroke="#1b9e77" d="M398.06,-381.36C378.28,-367.29 352.49,-348.93 346.35,-344.56"/>
</g>
<!-- 15261653973930954653 -->
<g id="node2" class="node">
<title>15261653973930954653</title>
<path fill="lightgray" stroke="black" d="M379,-190.2C379,-190.2 207,-190.2 207,-190.2 201,-190.2 195,-184.2 195,-178.2 195,-178.2 195,-166.2 195,-166.2 195,-160.2 201,-154.2 207,-154.2 207,-154.2 379,-154.2 379,-154.2 385,-154.2 391,-160.2 391,-166.2 391,-166.2 391,-178.2 391,-178.2 391,-184.2 385,-190.2 379,-190.2"/>
<text text-anchor="middle" x="293" y="-168.5" font-family="Times,serif" font-size="14.00">OpticalModel&lt;Pyramid&gt;</text>
</g>
<!-- 4878937947813311888 -->
<g id="node8" class="node">
<title>4878937947813311888</title>
<ellipse fill="#3d3d3d" stroke="lightgray" cx="320" cy="-115.4" rx="1.8" ry="1.8"/>
</g>
<!-- 15261653973930954653&#45;&gt;4878937947813311888 -->
<g id="edge2" class="edge">
<title>15261653973930954653&#45;&gt;4878937947813311888</title>
<path fill="none" stroke="#1b9e77" d="M301.39,-154.16C308.33,-140.09 317.37,-121.73 319.53,-117.36"/>
</g>
<!-- 912500471665122232 -->
<g id="node9" class="node">
<title>912500471665122232</title>
<ellipse fill="#3d3d3d" stroke="lightgray" cx="240" cy="-115.4" rx="1.8" ry="1.8"/>
</g>
<!-- 15261653973930954653&#45;&gt;912500471665122232 -->
<g id="edge3" class="edge">
<title>15261653973930954653&#45;&gt;912500471665122232</title>
<path fill="none" stroke="#1b9e77" d="M276.52,-154.16C262.91,-140.09 245.16,-121.73 240.93,-117.36"/>
</g>
<!-- 4520954725699245886 -->
<g id="node3" class="node">
<title>4520954725699245886</title>
<path fill="lightgray" stroke="black" d="M397,-303.8C397,-303.8 313,-303.8 313,-303.8 307,-303.8 301,-297.8 301,-291.8 301,-291.8 301,-279.8 301,-279.8 301,-273.8 307,-267.8 313,-267.8 313,-267.8 397,-267.8 397,-267.8 403,-267.8 409,-273.8 409,-279.8 409,-279.8 409,-291.8 409,-291.8 409,-297.8 403,-303.8 397,-303.8"/>
<text text-anchor="middle" x="355" y="-282.1" font-family="Times,serif" font-size="14.00">Timer</text>
</g>
<!-- 3258540324722167673 -->
<g id="node10" class="node">
<title>3258540324722167673</title>
<ellipse fill="#3d3d3d" stroke="lightgray" cx="342" cy="-229" rx="1.8" ry="1.8"/>
</g>
<!-- 4520954725699245886&#45;&gt;3258540324722167673 -->
<g id="edge4" class="edge">
<title>4520954725699245886&#45;&gt;3258540324722167673</title>
<path fill="none" stroke="#1b9e77" d="M350.96,-267.76C347.62,-253.69 343.26,-235.33 342.23,-230.96"/>
</g>
<!-- 6757746540585577146 -->
<g id="node4" class="node">
<title>6757746540585577146</title>
<path fill="lightgray" stroke="black" d="M270.5,-303.8C270.5,-303.8 49.5,-303.8 49.5,-303.8 43.5,-303.8 37.5,-297.8 37.5,-291.8 37.5,-291.8 37.5,-279.8 37.5,-279.8 37.5,-273.8 43.5,-267.8 49.5,-267.8 49.5,-267.8 270.5,-267.8 270.5,-267.8 276.5,-267.8 282.5,-273.8 282.5,-279.8 282.5,-279.8 282.5,-291.8 282.5,-291.8 282.5,-297.8 276.5,-303.8 270.5,-303.8"/>
<text text-anchor="middle" x="160" y="-282.1" font-family="Times,serif" font-size="14.00">Integrator&lt;ResidualM2modes&gt;</text>
</g>
<!-- 1983107429289079761 -->
<g id="node11" class="node">
<title>1983107429289079761</title>
<ellipse fill="#3d3d3d" stroke="lightgray" cx="212" cy="-229" rx="1.8" ry="1.8"/>
</g>
<!-- 6757746540585577146&#45;&gt;1983107429289079761 -->
<g id="edge5" class="edge">
<title>6757746540585577146&#45;&gt;1983107429289079761</title>
<path fill="none" stroke="#1b9e77" stroke-width="2" d="M176.17,-267.76C189.52,-253.69 206.94,-235.33 211.09,-230.96"/>
</g>
<!-- 3098034268619921726 -->
<g id="node5" class="node">
<title>3098034268619921726</title>
<path fill="lightgray" stroke="black" d="M397.5,-76.6C397.5,-76.6 272.5,-76.6 272.5,-76.6 266.5,-76.6 260.5,-70.6 260.5,-64.6 260.5,-64.6 260.5,-52.6 260.5,-52.6 260.5,-46.6 266.5,-40.6 272.5,-40.6 272.5,-40.6 397.5,-40.6 397.5,-40.6 403.5,-40.6 409.5,-46.6 409.5,-52.6 409.5,-52.6 409.5,-64.6 409.5,-64.6 409.5,-70.6 403.5,-76.6 397.5,-76.6"/>
<text text-anchor="middle" x="335" y="-54.9" font-family="Times,serif" font-size="14.00">Print&lt;Vec&lt;f64&gt;&gt;</text>
</g>
<!-- 1974213475832028745 -->
<g id="node6" class="node">
<title>1974213475832028745</title>
<path fill="lightgray" stroke="black" d="M230,-76.6C230,-76.6 12,-76.6 12,-76.6 6,-76.6 0,-70.6 0,-64.6 0,-64.6 0,-52.6 0,-52.6 0,-46.6 6,-40.6 12,-40.6 12,-40.6 230,-40.6 230,-40.6 236,-40.6 242,-46.6 242,-52.6 242,-52.6 242,-64.6 242,-64.6 242,-70.6 236,-76.6 230,-76.6"/>
<text text-anchor="middle" x="121" y="-54.9" font-family="Times,serif" font-size="14.00">Processor&lt;PyramidProcessor&gt;</text>
</g>
<!-- 5033500377993613365 -->
<g id="node12" class="node">
<title>5033500377993613365</title>
<ellipse fill="#3d3d3d" stroke="lightgray" cx="279" cy="-1.8" rx="1.8" ry="1.8"/>
</g>
<!-- 1974213475832028745&#45;&gt;5033500377993613365 -->
<g id="edge6" class="edge">
<title>1974213475832028745&#45;&gt;5033500377993613365</title>
<path fill="none" stroke="#1b9e77" d="M170.13,-40.56C212.16,-25.98 267.42,-6.81 277.42,-3.35"/>
</g>
<!-- 9051896820175273201&#45;&gt;6757746540585577146 -->
<g id="edge10" class="edge">
<title>9051896820175273201&#45;&gt;6757746540585577146</title>
<path fill="none" stroke="#1b9e77" d="M343.4,-341.13C333.13,-338.08 275.3,-320.95 227.29,-306.73"/>
<polygon fill="#1b9e77" stroke="#1b9e77" points="217.53,-303.84 228.39,-302.37 222.32,-305.26 227.11,-306.68 227.11,-306.68 227.11,-306.68 222.32,-305.26 225.84,-310.99 217.53,-303.84 217.53,-303.84"/>
<text text-anchor="middle" x="322.5" y="-320.1" font-family="Times,serif" font-size="9.00" fill="lightgray">ResidualM2modes</text>
</g>
<!-- 4878937947813311888&#45;&gt;3098034268619921726 -->
<g id="edge11" class="edge">
<title>4878937947813311888&#45;&gt;3098034268619921726</title>
<path fill="none" stroke="#1b9e77" d="M320.26,-113.45C321.19,-110.05 324.47,-98.09 327.69,-86.3"/>
<polygon fill="#1b9e77" stroke="#1b9e77" points="330.34,-76.62 332.04,-87.46 329.02,-81.45 327.7,-86.27 327.7,-86.27 327.7,-86.27 329.02,-81.45 323.36,-85.08 330.34,-76.62 330.34,-76.62"/>
<text text-anchor="middle" x="356.5" y="-92.9" font-family="Times,serif" font-size="9.00" fill="lightgray">WfeRms&lt;&#45;9&gt;</text>
</g>
<!-- 912500471665122232&#45;&gt;1974213475832028745 -->
<g id="edge12" class="edge">
<title>912500471665122232&#45;&gt;1974213475832028745</title>
<path fill="none" stroke="#1b9e77" d="M238.66,-113.78C231.54,-110.51 197.28,-94.73 167.55,-81.04"/>
<polygon fill="#1b9e77" stroke="#1b9e77" points="158.1,-76.69 169.07,-76.78 162.64,-78.78 167.18,-80.87 167.18,-80.87 167.18,-80.87 162.64,-78.78 165.3,-84.96 158.1,-76.69 158.1,-76.69"/>
<text text-anchor="middle" x="234" y="-92.9" font-family="Times,serif" font-size="9.00" fill="lightgray">DetectorFrame</text>
</g>
<!-- 3258540324722167673&#45;&gt;15261653973930954653 -->
<g id="edge8" class="edge">
<title>3258540324722167673&#45;&gt;15261653973930954653</title>
<path fill="none" stroke="#1b9e77" d="M341.15,-227.05C337.93,-223.45 326.1,-210.22 314.98,-197.78"/>
<polygon fill="#1b9e77" stroke="#1b9e77" points="308.22,-190.22 318.24,-194.68 311.56,-193.95 314.89,-197.68 314.89,-197.68 314.89,-197.68 311.56,-193.95 311.53,-200.68 308.22,-190.22 308.22,-190.22"/>
<text text-anchor="middle" x="335" y="-206.5" font-family="Times,serif" font-size="9.00" fill="lightgray">Tick</text>
</g>
<!-- 1983107429289079761&#45;&gt;15261653973930954653 -->
<g id="edge9" class="edge">
<title>1983107429289079761&#45;&gt;15261653973930954653</title>
<path fill="none" stroke="#1b9e77" d="M212.91,-227.38C217.57,-224.23 239.34,-209.5 259.01,-196.2"/>
<polygon fill="#1b9e77" stroke="#1b9e77" points="267.54,-190.43 261.78,-199.76 263.4,-193.23 259.26,-196.03 259.26,-196.03 259.26,-196.03 263.4,-193.23 256.73,-192.3 267.54,-190.43 267.54,-190.43"/>
<text text-anchor="middle" x="263.5" y="-206.5" font-family="Times,serif" font-size="9.00" fill="lightgray">M2modes</text>
</g>
<!-- 5033500377993613365&#45;&gt;5825991630372638752 -->
<g id="edge7" class="edge">
<title>5033500377993613365&#45;&gt;5825991630372638752</title>
<path fill="none" stroke="#1b9e77" d="M280.77,-3.01C298.13,-5.08 437,-22.76 437,-57.6 437,-343.6 437,-343.6 437,-343.6 437,-352.82 435,-362.61 432.46,-371.32"/>
<polygon fill="#1b9e77" stroke="#1b9e77" points="429.32,-380.96 428.14,-370.06 430.87,-376.21 432.42,-371.45 432.42,-371.45 432.42,-371.45 430.87,-376.21 436.7,-372.85 429.32,-380.96 429.32,-380.96"/>
<text text-anchor="middle" x="490" y="-206.5" font-family="Times,serif" font-size="9.00" fill="lightgray">PyramidMeasurements</text>
</g>
</g>
</svg>
