<?xml version="1.0" encoding="UTF-8" standalone="no"?>
<!DOCTYPE svg PUBLIC "-//W3C//DTD SVG 1.1//EN"
 "http://www.w3.org/Graphics/SVG/1.1/DTD/svg11.dtd">
<!-- Generated by graphviz version 2.43.0 (0)
 -->
<!-- Title: G Pages: 1 -->
<svg width="437pt" height="653pt"
 viewBox="0.00 0.00 437.00 652.60" xmlns="http://www.w3.org/2000/svg" xmlns:xlink="http://www.w3.org/1999/xlink">
<g id="graph0" class="graph" transform="scale(1 1) rotate(0) translate(4 648.6)">
<title>G</title>
<polygon fill="#3d3d3d" stroke="transparent" points="-4,4 -4,-648.6 433,-648.6 433,4 -4,4"/>
<!-- 13047650439290747585 -->
<g id="node1" class="node">
<title>13047650439290747585</title>
<path fill="lightgray" stroke="black" d="M417,-644.6C417,-644.6 196,-644.6 196,-644.6 190,-644.6 184,-638.6 184,-632.6 184,-632.6 184,-620.6 184,-620.6 184,-614.6 190,-608.6 196,-608.6 196,-608.6 417,-608.6 417,-608.6 423,-608.6 429,-614.6 429,-620.6 429,-620.6 429,-632.6 429,-632.6 429,-638.6 423,-644.6 417,-644.6"/>
<text text-anchor="middle" x="306.5" y="-622.9" font-family="Times,serif" font-size="14.00">Integrator&lt;ResidualM2modes&gt;</text>
</g>
<!-- 1983107429289079761 -->
<g id="node8" class="node">
<title>1983107429289079761</title>
<ellipse fill="#3d3d3d" stroke="lightgray" cx="278.5" cy="-569.8" rx="1.8" ry="1.8"/>
</g>
<!-- 13047650439290747585&#45;&gt;1983107429289079761 -->
<g id="edge1" class="edge">
<title>13047650439290747585&#45;&gt;1983107429289079761</title>
<path fill="none" stroke="#1b9e77" stroke-width="2" d="M297.79,-608.56C290.6,-594.49 281.22,-576.13 278.99,-571.76"/>
</g>
<!-- 11234855959447847132 -->
<g id="node2" class="node">
<title>11234855959447847132</title>
<path fill="lightgray" stroke="black" d="M155.5,-531C155.5,-531 71.5,-531 71.5,-531 65.5,-531 59.5,-525 59.5,-519 59.5,-519 59.5,-507 59.5,-507 59.5,-501 65.5,-495 71.5,-495 71.5,-495 155.5,-495 155.5,-495 161.5,-495 167.5,-501 167.5,-507 167.5,-507 167.5,-519 167.5,-519 167.5,-525 161.5,-531 155.5,-531"/>
<text text-anchor="middle" x="113.5" y="-509.3" font-family="Times,serif" font-size="14.00">Timer</text>
</g>
<!-- 3258540324722167673 -->
<g id="node9" class="node">
<title>3258540324722167673</title>
<ellipse fill="#3d3d3d" stroke="lightgray" cx="115.5" cy="-456.2" rx="1.8" ry="1.8"/>
</g>
<!-- 11234855959447847132&#45;&gt;3258540324722167673 -->
<g id="edge2" class="edge">
<title>11234855959447847132&#45;&gt;3258540324722167673</title>
<path fill="none" stroke="#1b9e77" d="M114.12,-494.96C114.64,-480.89 115.31,-462.53 115.46,-458.16"/>
</g>
<!-- 6187359339687752240 -->
<g id="node3" class="node">
<title>6187359339687752240</title>
<path fill="lightgray" stroke="black" d="M241.5,-76.6C241.5,-76.6 157.5,-76.6 157.5,-76.6 151.5,-76.6 145.5,-70.6 145.5,-64.6 145.5,-64.6 145.5,-52.6 145.5,-52.6 145.5,-46.6 151.5,-40.6 157.5,-40.6 157.5,-40.6 241.5,-40.6 241.5,-40.6 247.5,-40.6 253.5,-46.6 253.5,-52.6 253.5,-52.6 253.5,-64.6 253.5,-64.6 253.5,-70.6 247.5,-76.6 241.5,-76.6"/>
<text text-anchor="middle" x="199.5" y="-54.9" font-family="Times,serif" font-size="14.00">Delay</text>
</g>
<!-- 2921664031020305665 -->
<g id="node10" class="node">
<title>2921664031020305665</title>
<ellipse fill="#3d3d3d" stroke="lightgray" cx="240.5" cy="-1.8" rx="1.8" ry="1.8"/>
</g>
<!-- 6187359339687752240&#45;&gt;2921664031020305665 -->
<g id="edge3" class="edge">
<title>6187359339687752240&#45;&gt;2921664031020305665</title>
<path fill="none" stroke="#1b9e77" stroke-width="2" d="M212.25,-40.56C222.78,-26.49 236.51,-8.13 239.78,-3.76"/>
</g>
<!-- 1252483954930715979 -->
<g id="node4" class="node">
<title>1252483954930715979</title>
<path fill="lightgray" stroke="black" d="M241,-190.2C241,-190.2 12,-190.2 12,-190.2 6,-190.2 0,-184.2 0,-178.2 0,-178.2 0,-166.2 0,-166.2 0,-160.2 6,-154.2 12,-154.2 12,-154.2 241,-154.2 241,-154.2 247,-154.2 253,-160.2 253,-166.2 253,-166.2 253,-178.2 253,-178.2 253,-184.2 247,-190.2 241,-190.2"/>
<text text-anchor="middle" x="126.5" y="-168.5" font-family="Times,serif" font-size="14.00">Calibration&lt;PyramidCalibrator&gt;</text>
</g>
<!-- 9051896820175273201 -->
<g id="node11" class="node">
<title>9051896820175273201</title>
<ellipse fill="#3d3d3d" stroke="lightgray" cx="199.5" cy="-115.4" rx="1.8" ry="1.8"/>
</g>
<!-- 1252483954930715979&#45;&gt;9051896820175273201 -->
<g id="edge4" class="edge">
<title>1252483954930715979&#45;&gt;9051896820175273201</title>
<path fill="none" stroke="#1b9e77" d="M149.2,-154.16C167.95,-140.09 192.4,-121.73 198.22,-117.36"/>
</g>
<!-- 9997949749158111632 -->
<g id="node5" class="node">
<title>9997949749158111632</title>
<path fill="lightgray" stroke="black" d="M281.5,-531C281.5,-531 197.5,-531 197.5,-531 191.5,-531 185.5,-525 185.5,-519 185.5,-519 185.5,-507 185.5,-507 185.5,-501 191.5,-495 197.5,-495 197.5,-495 281.5,-495 281.5,-495 287.5,-495 293.5,-501 293.5,-507 293.5,-507 293.5,-519 293.5,-519 293.5,-525 287.5,-531 281.5,-531"/>
<text text-anchor="middle" x="239.5" y="-509.3" font-family="Times,serif" font-size="14.00">OpticalGain</text>
</g>
<!-- 3772728463439790113 -->
<g id="node12" class="node">
<title>3772728463439790113</title>
<ellipse fill="#3d3d3d" stroke="lightgray" cx="181.5" cy="-456.2" rx="1.8" ry="1.8"/>
</g>
<!-- 9997949749158111632&#45;&gt;3772728463439790113 -->
<g id="edge5" class="edge">
<title>9997949749158111632&#45;&gt;3772728463439790113</title>
<path fill="none" stroke="#1b9e77" stroke-width="2" d="M221.47,-494.96C206.57,-480.89 187.14,-462.53 182.52,-458.16"/>
</g>
<!-- 4588655652907273694 -->
<g id="node6" class="node">
<title>4588655652907273694</title>
<path fill="lightgray" stroke="black" d="M212.5,-417.4C212.5,-417.4 40.5,-417.4 40.5,-417.4 34.5,-417.4 28.5,-411.4 28.5,-405.4 28.5,-405.4 28.5,-393.4 28.5,-393.4 28.5,-387.4 34.5,-381.4 40.5,-381.4 40.5,-381.4 212.5,-381.4 212.5,-381.4 218.5,-381.4 224.5,-387.4 224.5,-393.4 224.5,-393.4 224.5,-405.4 224.5,-405.4 224.5,-411.4 218.5,-417.4 212.5,-417.4"/>
<text text-anchor="middle" x="126.5" y="-395.7" font-family="Times,serif" font-size="14.00">OpticalModel&lt;Pyramid&gt;</text>
</g>
<!-- 912500471665122232 -->
<g id="node13" class="node">
<title>912500471665122232</title>
<ellipse fill="#3d3d3d" stroke="lightgray" cx="126.5" cy="-342.6" rx="1.8" ry="1.8"/>
</g>
<!-- 4588655652907273694&#45;&gt;912500471665122232 -->
<g id="edge6" class="edge">
<title>4588655652907273694&#45;&gt;912500471665122232</title>
<path fill="none" stroke="#1b9e77" d="M126.5,-381.36C126.5,-367.29 126.5,-348.93 126.5,-344.56"/>
</g>
<!-- 13719012888887203865 -->
<g id="node7" class="node">
<title>13719012888887203865</title>
<path fill="lightgray" stroke="black" d="M235.5,-303.8C235.5,-303.8 17.5,-303.8 17.5,-303.8 11.5,-303.8 5.5,-297.8 5.5,-291.8 5.5,-291.8 5.5,-279.8 5.5,-279.8 5.5,-273.8 11.5,-267.8 17.5,-267.8 17.5,-267.8 235.5,-267.8 235.5,-267.8 241.5,-267.8 247.5,-273.8 247.5,-279.8 247.5,-279.8 247.5,-291.8 247.5,-291.8 247.5,-297.8 241.5,-303.8 235.5,-303.8"/>
<text text-anchor="middle" x="126.5" y="-282.1" font-family="Times,serif" font-size="14.00">Processor&lt;PyramidProcessor&gt;</text>
</g>
<!-- 5033500377993613365 -->
<g id="node14" class="node">
<title>5033500377993613365</title>
<ellipse fill="#3d3d3d" stroke="lightgray" cx="126.5" cy="-229" rx="1.8" ry="1.8"/>
</g>
<!-- 13719012888887203865&#45;&gt;5033500377993613365 -->
<g id="edge7" class="edge">
<title>13719012888887203865&#45;&gt;5033500377993613365</title>
<path fill="none" stroke="#1b9e77" d="M126.5,-267.76C126.5,-253.69 126.5,-235.33 126.5,-230.96"/>
</g>
<!-- 1983107429289079761&#45;&gt;9997949749158111632 -->
<g id="edge11" class="edge">
<title>1983107429289079761&#45;&gt;9997949749158111632</title>
<path fill="none" stroke="#1b9e77" d="M277.82,-567.85C275.31,-564.32 266.2,-551.52 257.49,-539.28"/>
<polygon fill="#1b9e77" stroke="#1b9e77" points="251.62,-531.02 261.08,-536.56 254.52,-535.1 257.41,-539.17 257.41,-539.17 257.41,-539.17 254.52,-535.1 253.75,-541.78 251.62,-531.02 251.62,-531.02"/>
<text text-anchor="middle" x="287" y="-547.3" font-family="Times,serif" font-size="9.00" fill="lightgray">M2modes</text>
</g>
<!-- 3258540324722167673&#45;&gt;4588655652907273694 -->
<g id="edge13" class="edge">
<title>3258540324722167673&#45;&gt;4588655652907273694</title>
<path fill="none" stroke="#1b9e77" d="M115.69,-454.25C116.37,-450.89 118.73,-439.13 121.07,-427.45"/>
<polygon fill="#1b9e77" stroke="#1b9e77" points="123.08,-417.42 125.53,-428.11 122.1,-422.33 121.11,-427.23 121.11,-427.23 121.11,-427.23 122.1,-422.33 116.7,-426.34 123.08,-417.42 123.08,-417.42"/>
<text text-anchor="middle" x="129.5" y="-433.7" font-family="Times,serif" font-size="9.00" fill="lightgray">Tick</text>
</g>
<!-- 2921664031020305665&#45;&gt;9997949749158111632 -->
<g id="edge12" class="edge">
<title>2921664031020305665&#45;&gt;9997949749158111632</title>
<path fill="none" stroke="#1b9e77" d="M241.51,-3.43C247.83,-7.42 281.5,-30.03 281.5,-57.6 281.5,-457.2 281.5,-457.2 281.5,-457.2 281.5,-468.4 275.91,-478.72 268.81,-487.31"/>
<polygon fill="#1b9e77" stroke="#1b9e77" points="261.98,-494.7 265.46,-484.3 265.37,-491.02 268.77,-487.35 268.77,-487.35 268.77,-487.35 265.37,-491.02 272.07,-490.41 261.98,-494.7 261.98,-494.7"/>
<text text-anchor="middle" x="324" y="-247.1" font-family="Times,serif" font-size="9.00" fill="lightgray">ResidualM2modes</text>
</g>
<!-- 9051896820175273201&#45;&gt;13047650439290747585 -->
<g id="edge8" class="edge">
<title>9051896820175273201&#45;&gt;13047650439290747585</title>
<path fill="none" stroke="#1b9e77" d="M201.22,-116.36C216.05,-116.06 321.5,-115.94 321.5,-171.2 321.5,-570.8 321.5,-570.8 321.5,-570.8 321.5,-580.02 319.5,-589.81 316.96,-598.52"/>
<polygon fill="#1b9e77" stroke="#1b9e77" points="313.82,-608.16 312.64,-597.26 315.37,-603.41 316.92,-598.65 316.92,-598.65 316.92,-598.65 315.37,-603.41 321.2,-600.05 313.82,-608.16 313.82,-608.16"/>
<text text-anchor="middle" x="364" y="-360.7" font-family="Times,serif" font-size="9.00" fill="lightgray">ResidualM2modes</text>
</g>
<!-- 9051896820175273201&#45;&gt;6187359339687752240 -->
<g id="edge9" class="edge">
<title>9051896820175273201&#45;&gt;6187359339687752240</title>
<path fill="none" stroke="#1b9e77" d="M199.5,-113.45C199.5,-110.09 199.5,-98.33 199.5,-86.65"/>
<polygon fill="#1b9e77" stroke="#1b9e77" points="199.5,-76.62 204,-86.62 199.5,-81.62 199.5,-86.62 199.5,-86.62 199.5,-86.62 199.5,-81.62 195,-86.62 199.5,-76.62 199.5,-76.62"/>
<text text-anchor="middle" x="242" y="-92.9" font-family="Times,serif" font-size="9.00" fill="lightgray">ResidualM2modes</text>
</g>
<!-- 3772728463439790113&#45;&gt;4588655652907273694 -->
<g id="edge14" class="edge">
<title>3772728463439790113&#45;&gt;4588655652907273694</title>
<path fill="none" stroke="#1b9e77" d="M180.55,-454.25C176.9,-450.61 163.4,-437.17 150.81,-424.63"/>
<polygon fill="#1b9e77" stroke="#1b9e77" points="143.59,-417.42 153.85,-421.3 147.13,-420.95 150.67,-424.48 150.67,-424.48 150.67,-424.48 147.13,-420.95 147.49,-427.67 143.59,-417.42 143.59,-417.42"/>
<text text-anchor="middle" x="185" y="-433.7" font-family="Times,serif" font-size="9.00" fill="lightgray">M2modes</text>
</g>
<!-- 912500471665122232&#45;&gt;13719012888887203865 -->
<g id="edge15" class="edge">
<title>912500471665122232&#45;&gt;13719012888887203865</title>
<path fill="none" stroke="#1b9e77" d="M126.5,-340.65C126.5,-337.29 126.5,-325.53 126.5,-313.85"/>
<polygon fill="#1b9e77" stroke="#1b9e77" points="126.5,-303.82 131,-313.82 126.5,-308.82 126.5,-313.82 126.5,-313.82 126.5,-313.82 126.5,-308.82 122,-313.82 126.5,-303.82 126.5,-303.82"/>
<text text-anchor="middle" x="161.5" y="-320.1" font-family="Times,serif" font-size="9.00" fill="lightgray">DetectorFrame</text>
</g>
<!-- 5033500377993613365&#45;&gt;1252483954930715979 -->
<g id="edge10" class="edge">
<title>5033500377993613365&#45;&gt;1252483954930715979</title>
<path fill="none" stroke="#1b9e77" d="M126.5,-227.05C126.5,-223.69 126.5,-211.93 126.5,-200.25"/>
<polygon fill="#1b9e77" stroke="#1b9e77" points="126.5,-190.22 131,-200.22 126.5,-195.22 126.5,-200.22 126.5,-200.22 126.5,-200.22 126.5,-195.22 122,-200.22 126.5,-190.22 126.5,-190.22"/>
<text text-anchor="middle" x="179.5" y="-206.5" font-family="Times,serif" font-size="9.00" fill="lightgray">PyramidMeasurements</text>
</g>
</g>
</svg>
