<?xml version="1.0" encoding="UTF-8" standalone="no"?>
<!DOCTYPE svg PUBLIC "-//W3C//DTD SVG 1.1//EN"
 "http://www.w3.org/Graphics/SVG/1.1/DTD/svg11.dtd">
<!-- Generated by graphviz version 2.43.0 (0)
 -->
<!-- Title: G Pages: 1 -->
<svg width="822pt" height="500pt"
 viewBox="0.00 0.00 821.50 500.40" xmlns="http://www.w3.org/2000/svg" xmlns:xlink="http://www.w3.org/1999/xlink">
<g id="graph0" class="graph" transform="scale(1 1) rotate(0) translate(4 496.4)">
<title>G</title>
<polygon fill="#3d3d3d" stroke="transparent" points="-4,4 -4,-496.4 817.5,-496.4 817.5,4 -4,4"/>
<!-- 16366623609035416642 -->
<g id="node1" class="node">
<title>16366623609035416642</title>
<path fill="lightgray" stroke="black" d="M243.5,-378.8C243.5,-378.8 147.5,-378.8 147.5,-378.8 141.5,-378.8 135.5,-372.8 135.5,-366.8 135.5,-366.8 135.5,-352.8 135.5,-352.8 135.5,-346.8 141.5,-340.8 147.5,-340.8 147.5,-340.8 243.5,-340.8 243.5,-340.8 249.5,-340.8 255.5,-346.8 255.5,-352.8 255.5,-352.8 255.5,-366.8 255.5,-366.8 255.5,-372.8 249.5,-378.8 243.5,-378.8"/>
<text text-anchor="middle" x="195.5" y="-363.6" font-family="Times,serif" font-size="14.00">downsampling</text>
<text text-anchor="middle" x="195.5" y="-348.6" font-family="Times,serif" font-size="14.00">1:10</text>
</g>
<!-- 15868441270338933615 -->
<g id="node10" class="node">
<title>15868441270338933615</title>
<ellipse fill="#3d3d3d" stroke="lightgray" cx="195.5" cy="-302" rx="1.8" ry="1.8"/>
</g>
<!-- 16366623609035416642&#45;&gt;15868441270338933615 -->
<g id="edge1" class="edge">
<title>16366623609035416642&#45;&gt;15868441270338933615</title>
<path fill="none" stroke="#1b9e77" d="M195.5,-340.53C195.5,-326.29 195.5,-308.24 195.5,-303.95"/>
</g>
<!-- 734791048764596362 -->
<g id="node2" class="node">
<title>734791048764596362</title>
<path fill="lightgray" stroke="black" d="M244,-263.2C244,-263.2 147,-263.2 147,-263.2 141,-263.2 135,-257.2 135,-251.2 135,-251.2 135,-239.2 135,-239.2 135,-233.2 141,-227.2 147,-227.2 147,-227.2 244,-227.2 244,-227.2 250,-227.2 256,-233.2 256,-239.2 256,-239.2 256,-251.2 256,-251.2 256,-257.2 250,-263.2 244,-263.2"/>
<text text-anchor="middle" x="195.5" y="-241.5" font-family="Times,serif" font-size="14.00">model&#45;data_10</text>
</g>
<!-- 8729811997506064474 -->
<g id="node3" class="node">
<title>8729811997506064474</title>
<path fill="lightgray" stroke="black" d="M466.5,-492.4C466.5,-492.4 382.5,-492.4 382.5,-492.4 376.5,-492.4 370.5,-486.4 370.5,-480.4 370.5,-480.4 370.5,-468.4 370.5,-468.4 370.5,-462.4 376.5,-456.4 382.5,-456.4 382.5,-456.4 466.5,-456.4 466.5,-456.4 472.5,-456.4 478.5,-462.4 478.5,-468.4 478.5,-468.4 478.5,-480.4 478.5,-480.4 478.5,-486.4 472.5,-492.4 466.5,-492.4"/>
<text text-anchor="middle" x="424.5" y="-470.7" font-family="Times,serif" font-size="14.00">Timer</text>
</g>
<!-- 3258540324722167673 -->
<g id="node11" class="node">
<title>3258540324722167673</title>
<ellipse fill="#3d3d3d" stroke="lightgray" cx="424.5" cy="-417.6" rx="1.8" ry="1.8"/>
</g>
<!-- 8729811997506064474&#45;&gt;3258540324722167673 -->
<g id="edge2" class="edge">
<title>8729811997506064474&#45;&gt;3258540324722167673</title>
<path fill="none" stroke="#d95f02" d="M424.5,-456.36C424.5,-442.29 424.5,-423.93 424.5,-419.56"/>
</g>
<!-- 6094463925523512365 -->
<g id="node4" class="node">
<title>6094463925523512365</title>
<path fill="lightgray" stroke="black" d="M374.5,-263.2C374.5,-263.2 286.5,-263.2 286.5,-263.2 280.5,-263.2 274.5,-257.2 274.5,-251.2 274.5,-251.2 274.5,-239.2 274.5,-239.2 274.5,-233.2 280.5,-227.2 286.5,-227.2 286.5,-227.2 374.5,-227.2 374.5,-227.2 380.5,-227.2 386.5,-233.2 386.5,-239.2 386.5,-239.2 386.5,-251.2 386.5,-251.2 386.5,-257.2 380.5,-263.2 374.5,-263.2"/>
<text text-anchor="middle" x="330.5" y="-241.5" font-family="Times,serif" font-size="14.00">model&#45;data_1</text>
</g>
<!-- 3128921108306212453 -->
<g id="node5" class="node">
<title>3128921108306212453</title>
<path fill="lightgray" stroke="black" d="M801.5,-263.2C801.5,-263.2 583.5,-263.2 583.5,-263.2 577.5,-263.2 571.5,-257.2 571.5,-251.2 571.5,-251.2 571.5,-239.2 571.5,-239.2 571.5,-233.2 577.5,-227.2 583.5,-227.2 583.5,-227.2 801.5,-227.2 801.5,-227.2 807.5,-227.2 813.5,-233.2 813.5,-239.2 813.5,-239.2 813.5,-251.2 813.5,-251.2 813.5,-257.2 807.5,-263.2 801.5,-263.2"/>
<text text-anchor="middle" x="692.5" y="-241.5" font-family="Times,serif" font-size="14.00">Processor&lt;PyramidProcessor&gt;</text>
</g>
<!-- 5033500377993613365 -->
<g id="node12" class="node">
<title>5033500377993613365</title>
<ellipse fill="#3d3d3d" stroke="lightgray" cx="638.5" cy="-188.4" rx="1.8" ry="1.8"/>
</g>
<!-- 3128921108306212453&#45;&gt;5033500377993613365 -->
<g id="edge3" class="edge">
<title>3128921108306212453&#45;&gt;5033500377993613365</title>
<path fill="none" stroke="#d95f02" d="M675.71,-227.16C661.84,-213.09 643.75,-194.73 639.45,-190.36"/>
</g>
<!-- 17009516260200669910 -->
<g id="node6" class="node">
<title>17009516260200669910</title>
<path fill="lightgray" stroke="black" d="M542,-263.2C542,-263.2 417,-263.2 417,-263.2 411,-263.2 405,-257.2 405,-251.2 405,-251.2 405,-239.2 405,-239.2 405,-233.2 411,-227.2 417,-227.2 417,-227.2 542,-227.2 542,-227.2 548,-227.2 554,-233.2 554,-239.2 554,-239.2 554,-251.2 554,-251.2 554,-257.2 548,-263.2 542,-263.2"/>
<text text-anchor="middle" x="479.5" y="-241.5" font-family="Times,serif" font-size="14.00">Print&lt;Vec&lt;f64&gt;&gt;</text>
</g>
<!-- 3048832124677025413 -->
<g id="node7" class="node">
<title>3048832124677025413</title>
<path fill="lightgray" stroke="black" d="M510.5,-377.8C510.5,-377.8 338.5,-377.8 338.5,-377.8 332.5,-377.8 326.5,-371.8 326.5,-365.8 326.5,-365.8 326.5,-353.8 326.5,-353.8 326.5,-347.8 332.5,-341.8 338.5,-341.8 338.5,-341.8 510.5,-341.8 510.5,-341.8 516.5,-341.8 522.5,-347.8 522.5,-353.8 522.5,-353.8 522.5,-365.8 522.5,-365.8 522.5,-371.8 516.5,-377.8 510.5,-377.8"/>
<text text-anchor="middle" x="424.5" y="-356.1" font-family="Times,serif" font-size="14.00">OpticalModel&lt;Pyramid&gt;</text>
</g>
<!-- 4878937947813311888 -->
<g id="node13" class="node">
<title>4878937947813311888</title>
<ellipse fill="#3d3d3d" stroke="lightgray" cx="424.5" cy="-302" rx="1.8" ry="1.8"/>
</g>
<!-- 3048832124677025413&#45;&gt;4878937947813311888 -->
<g id="edge4" class="edge">
<title>3048832124677025413&#45;&gt;4878937947813311888</title>
<path fill="none" stroke="#d95f02" d="M424.5,-341.75C424.5,-327.4 424.5,-308.49 424.5,-303.99"/>
</g>
<!-- 912500471665122232 -->
<g id="node14" class="node">
<title>912500471665122232</title>
<ellipse fill="#3d3d3d" stroke="lightgray" cx="536.5" cy="-302" rx="1.8" ry="1.8"/>
</g>
<!-- 3048832124677025413&#45;&gt;912500471665122232 -->
<g id="edge5" class="edge">
<title>3048832124677025413&#45;&gt;912500471665122232</title>
<path fill="none" stroke="#d95f02" d="M458.71,-341.75C488.56,-326.88 528.2,-307.14 535.36,-303.57"/>
</g>
<!-- 6250487506788859202 -->
<g id="node8" class="node">
<title>6250487506788859202</title>
<path fill="lightgray" stroke="black" d="M233,-36C233,-36 12,-36 12,-36 6,-36 0,-30 0,-24 0,-24 0,-12 0,-12 0,-6 6,0 12,0 12,0 233,0 233,0 239,0 245,-6 245,-12 245,-12 245,-24 245,-24 245,-30 239,-36 233,-36"/>
<text text-anchor="middle" x="122.5" y="-14.3" font-family="Times,serif" font-size="14.00">Integrator&lt;ResidualM2modes&gt;</text>
</g>
<!-- 1983107429289079761 -->
<g id="node15" class="node">
<title>1983107429289079761</title>
<ellipse fill="#3d3d3d" stroke="lightgray" cx="195.5" cy="-417.6" rx="1.8" ry="1.8"/>
</g>
<!-- 6250487506788859202&#45;&gt;1983107429289079761 -->
<g id="edge6" class="edge">
<title>6250487506788859202&#45;&gt;1983107429289079761</title>
<path fill="none" stroke="#d95f02" stroke-width="2" d="M114.69,-36.39C110.63,-46.99 106.5,-60.92 106.5,-73.8 106.5,-360.8 106.5,-360.8 106.5,-360.8 106.5,-403.84 182.14,-414.95 193.96,-416.42"/>
</g>
<!-- 16085223831876208454 -->
<g id="node9" class="node">
<title>16085223831876208454</title>
<path fill="lightgray" stroke="black" d="M591,-149.6C591,-149.6 362,-149.6 362,-149.6 356,-149.6 350,-143.6 350,-137.6 350,-137.6 350,-125.6 350,-125.6 350,-119.6 356,-113.6 362,-113.6 362,-113.6 591,-113.6 591,-113.6 597,-113.6 603,-119.6 603,-125.6 603,-125.6 603,-137.6 603,-137.6 603,-143.6 597,-149.6 591,-149.6"/>
<text text-anchor="middle" x="476.5" y="-127.9" font-family="Times,serif" font-size="14.00">Calibration&lt;PyramidCalibrator&gt;</text>
</g>
<!-- 9051896820175273201 -->
<g id="node16" class="node">
<title>9051896820175273201</title>
<ellipse fill="#3d3d3d" stroke="lightgray" cx="391.5" cy="-74.8" rx="1.8" ry="1.8"/>
</g>
<!-- 16085223831876208454&#45;&gt;9051896820175273201 -->
<g id="edge7" class="edge">
<title>16085223831876208454&#45;&gt;9051896820175273201</title>
<path fill="none" stroke="#d95f02" d="M450.07,-113.56C428.24,-99.49 399.77,-81.13 392.99,-76.76"/>
</g>
<!-- 15868441270338933615&#45;&gt;734791048764596362 -->
<g id="edge9" class="edge">
<title>15868441270338933615&#45;&gt;734791048764596362</title>
<path fill="none" stroke="#1b9e77" d="M195.5,-300.05C195.5,-296.69 195.5,-284.93 195.5,-273.25"/>
<polygon fill="#1b9e77" stroke="#1b9e77" points="195.5,-263.22 200,-273.22 195.5,-268.22 195.5,-273.22 195.5,-273.22 195.5,-273.22 195.5,-268.22 191,-273.22 195.5,-263.22 195.5,-263.22"/>
<text text-anchor="middle" x="218" y="-279.5" font-family="Times,serif" font-size="9.00" fill="lightgray">M2modes</text>
</g>
<!-- 3258540324722167673&#45;&gt;3048832124677025413 -->
<g id="edge13" class="edge">
<title>3258540324722167673&#45;&gt;3048832124677025413</title>
<path fill="none" stroke="#d95f02" d="M424.5,-415.63C424.5,-412.18 424.5,-400.07 424.5,-388.11"/>
<polygon fill="#d95f02" stroke="#d95f02" points="424.5,-377.85 429,-387.85 424.5,-382.85 424.5,-387.85 424.5,-387.85 424.5,-387.85 424.5,-382.85 420,-387.85 424.5,-377.85 424.5,-377.85"/>
<text text-anchor="middle" x="434.5" y="-395.1" font-family="Times,serif" font-size="9.00" fill="lightgray">Tick</text>
</g>
<!-- 5033500377993613365&#45;&gt;16085223831876208454 -->
<g id="edge16" class="edge">
<title>5033500377993613365&#45;&gt;16085223831876208454</title>
<path fill="none" stroke="#d95f02" d="M637.1,-186.93C628.18,-183.91 578.31,-167.04 536.48,-152.89"/>
<polygon fill="#d95f02" stroke="#d95f02" points="526.87,-149.64 537.79,-148.58 531.61,-151.24 536.35,-152.84 536.35,-152.84 536.35,-152.84 531.61,-151.24 534.9,-157.11 526.87,-149.64 526.87,-149.64"/>
<text text-anchor="middle" x="633.5" y="-165.9" font-family="Times,serif" font-size="9.00" fill="lightgray">PyramidMeasurements</text>
</g>
<!-- 4878937947813311888&#45;&gt;6094463925523512365 -->
<g id="edge10" class="edge">
<title>4878937947813311888&#45;&gt;6094463925523512365</title>
<path fill="none" stroke="#d95f02" stroke-dasharray="5,2" d="M423.44,-300.38C417.94,-297.17 391.86,-281.97 368.72,-268.48"/>
<polygon fill="#d95f02" stroke="#d95f02" points="360.05,-263.43 370.95,-264.58 364.37,-265.94 368.69,-268.46 368.69,-268.46 368.69,-268.46 364.37,-265.94 366.42,-272.35 360.05,-263.43 360.05,-263.43"/>
<text text-anchor="middle" x="421" y="-279.5" font-family="Times,serif" font-size="9.00" fill="lightgray">WfeRms&lt;&#45;9&gt;</text>
</g>
<!-- 4878937947813311888&#45;&gt;17009516260200669910 -->
<g id="edge12" class="edge">
<title>4878937947813311888&#45;&gt;17009516260200669910</title>
<path fill="none" stroke="#d95f02" stroke-dasharray="5,2" d="M425.45,-300.05C429.1,-296.41 442.6,-282.97 455.19,-270.43"/>
<polygon fill="#d95f02" stroke="#d95f02" points="462.41,-263.22 458.51,-273.47 458.87,-266.75 455.33,-270.28 455.33,-270.28 455.33,-270.28 458.87,-266.75 452.15,-267.1 462.41,-263.22 462.41,-263.22"/>
<text text-anchor="middle" x="474" y="-279.5" font-family="Times,serif" font-size="9.00" fill="lightgray">WfeRms&lt;&#45;9&gt;</text>
</g>
<!-- 912500471665122232&#45;&gt;3128921108306212453 -->
<g id="edge11" class="edge">
<title>912500471665122232&#45;&gt;3128921108306212453</title>
<path fill="none" stroke="#d95f02" d="M537.85,-300.53C546.42,-297.51 594.26,-280.71 634.49,-266.58"/>
<polygon fill="#d95f02" stroke="#d95f02" points="643.99,-263.24 636.05,-270.8 639.28,-264.9 634.56,-266.55 634.56,-266.55 634.56,-266.55 639.28,-264.9 633.07,-262.31 643.99,-263.24 643.99,-263.24"/>
<text text-anchor="middle" x="625.5" y="-279.5" font-family="Times,serif" font-size="9.00" fill="lightgray">DetectorFrame</text>
</g>
<!-- 1983107429289079761&#45;&gt;16366623609035416642 -->
<g id="edge8" class="edge">
<title>1983107429289079761&#45;&gt;16366623609035416642</title>
<path fill="none" stroke="#d95f02" stroke-dasharray="5,2" d="M195.5,-415.63C195.5,-412.27 195.5,-400.7 195.5,-389.04"/>
<polygon fill="#d95f02" stroke="#d95f02" points="195.5,-378.98 200,-388.98 195.5,-383.98 195.5,-388.98 195.5,-388.98 195.5,-388.98 195.5,-383.98 191,-388.98 195.5,-378.98 195.5,-378.98"/>
<text text-anchor="middle" x="218" y="-395.1" font-family="Times,serif" font-size="9.00" fill="lightgray">M2modes</text>
</g>
<!-- 1983107429289079761&#45;&gt;3048832124677025413 -->
<g id="edge14" class="edge">
<title>1983107429289079761&#45;&gt;3048832124677025413</title>
<path fill="none" stroke="#d95f02" d="M196.96,-416.24C208.33,-413.47 283.73,-395.1 344.67,-380.25"/>
<polygon fill="#d95f02" stroke="#d95f02" points="354.69,-377.81 346.04,-384.55 349.84,-378.99 344.98,-380.18 344.98,-380.18 344.98,-380.18 349.84,-378.99 343.91,-375.8 354.69,-377.81 354.69,-377.81"/>
<text text-anchor="middle" x="299" y="-395.1" font-family="Times,serif" font-size="9.00" fill="lightgray">M2modes</text>
</g>
<!-- 9051896820175273201&#45;&gt;6250487506788859202 -->
<g id="edge15" class="edge">
<title>9051896820175273201&#45;&gt;6250487506788859202</title>
<path fill="none" stroke="#d95f02" d="M390.05,-73.51C377.67,-70.98 288.27,-52.77 216.17,-38.08"/>
<polygon fill="#d95f02" stroke="#d95f02" points="206.12,-36.03 216.81,-33.62 211.02,-37.03 215.92,-38.03 215.92,-38.03 215.92,-38.03 211.02,-37.03 215.02,-42.44 206.12,-36.03 206.12,-36.03"/>
<text text-anchor="middle" x="340" y="-52.3" font-family="Times,serif" font-size="9.00" fill="lightgray">ResidualM2modes</text>
</g>
</g>
</svg>
